<mxfile host="app.diagrams.net" modified="2024-07-03T12:46:17.090Z" agent="Mozilla/5.0 (X11; Ubuntu; Linux x86_64; rv:126.0) Gecko/20100101 Firefox/126.0" etag="1CDJSnf-I3BPOvARPwB8" version="24.6.4" type="github">
  <diagram id="prtHgNgQTEPvFCAcTncT" name="Page-1">
    <mxGraphModel dx="1434" dy="680" grid="1" gridSize="10" guides="1" tooltips="1" connect="1" arrows="1" fold="1" page="1" pageScale="1" pageWidth="1169" pageHeight="827" math="0" shadow="0">
      <root>
        <mxCell id="0" />
        <mxCell id="1" parent="0" />
        <mxCell id="dNxyNK7c78bLwvsdeMH5-19" value="NFDI4Earth" style="swimlane;html=1;childLayout=stackLayout;resizeParent=1;resizeParentMax=0;horizontal=0;startSize=20;horizontalStack=0;fillColor=#1ba1e2;fontColor=#ffffff;strokeColor=#006EAF;fontSize=16;" parent="1" vertex="1">
          <mxGeometry x="270" y="190" width="810" height="480" as="geometry" />
        </mxCell>
        <mxCell id="dNxyNK7c78bLwvsdeMH5-21" value="OneStop4All" style="swimlane;html=1;startSize=20;horizontal=0;fontSize=14;" parent="dNxyNK7c78bLwvsdeMH5-19" vertex="1">
          <mxGeometry x="20" width="790" height="120" as="geometry">
            <mxRectangle x="20" y="120" width="430" height="30" as="alternateBounds" />
          </mxGeometry>
        </mxCell>
        <mxCell id="2lcCUF3nb1PlsJxBdxmF-54" value="SelfAssessment Form" style="strokeWidth=2;html=1;shape=mxgraph.flowchart.document2;whiteSpace=wrap;size=0.25;fontSize=14;" parent="dNxyNK7c78bLwvsdeMH5-21" vertex="1">
          <mxGeometry x="34" y="40" width="111" height="60" as="geometry" />
        </mxCell>
        <mxCell id="2lcCUF3nb1PlsJxBdxmF-61" value="Eval Process" style="points=[[0.25,0,0],[0.5,0,0],[0.75,0,0],[1,0.25,0],[1,0.5,0],[1,0.75,0],[0.75,1,0],[0.5,1,0],[0.25,1,0],[0,0.75,0],[0,0.5,0],[0,0.25,0]];shape=mxgraph.bpmn.task;whiteSpace=wrap;rectStyle=rounded;size=10;html=1;container=1;expand=0;collapsible=0;taskMarker=service;fontSize=14;" parent="dNxyNK7c78bLwvsdeMH5-21" vertex="1">
          <mxGeometry x="190" y="40" width="120" height="50" as="geometry" />
        </mxCell>
        <mxCell id="2lcCUF3nb1PlsJxBdxmF-70" value="&lt;div style=&quot;font-size: 14px;&quot;&gt;Communicate Results&lt;/div&gt;&lt;div style=&quot;font-size: 14px;&quot;&gt;&lt;br style=&quot;font-size: 14px;&quot;&gt;&lt;/div&gt;&lt;div style=&quot;font-size: 14px;&quot;&gt;&lt;br style=&quot;font-size: 14px;&quot;&gt;&lt;/div&gt;&lt;div style=&quot;font-size: 14px;&quot;&gt;&lt;br style=&quot;font-size: 14px;&quot;&gt;&lt;/div&gt;&lt;div style=&quot;font-size: 14px;&quot;&gt;&lt;br style=&quot;font-size: 14px;&quot;&gt;&lt;/div&gt;" style="points=[[0.25,0,0],[0.5,0,0],[0.75,0,0],[1,0.25,0],[1,0.5,0],[1,0.75,0],[0.75,1,0],[0.5,1,0],[0.25,1,0],[0,0.75,0],[0,0.5,0],[0,0.25,0]];shape=mxgraph.bpmn.task;whiteSpace=wrap;rectStyle=rounded;size=10;html=1;container=1;expand=0;collapsible=0;taskMarker=abstract;fontSize=14;" parent="dNxyNK7c78bLwvsdeMH5-21" vertex="1">
          <mxGeometry x="350" y="10" width="200" height="110" as="geometry" />
        </mxCell>
        <mxCell id="2lcCUF3nb1PlsJxBdxmF-90" value="Score" style="strokeWidth=2;html=1;shape=mxgraph.flowchart.document2;whiteSpace=wrap;size=0.25;fontSize=14;" parent="2lcCUF3nb1PlsJxBdxmF-70" vertex="1">
          <mxGeometry x="4.5" y="50" width="45.5" height="50" as="geometry" />
        </mxCell>
        <mxCell id="2lcCUF3nb1PlsJxBdxmF-94" style="rounded=0;orthogonalLoop=1;jettySize=auto;html=1;exitX=0.5;exitY=0;exitDx=0;exitDy=0;exitPerimeter=0;endArrow=none;endFill=0;dashed=1;" parent="2lcCUF3nb1PlsJxBdxmF-70" source="2lcCUF3nb1PlsJxBdxmF-91" edge="1">
          <mxGeometry relative="1" as="geometry">
            <mxPoint x="230" y="-90" as="targetPoint" />
          </mxGeometry>
        </mxCell>
        <mxCell id="2lcCUF3nb1PlsJxBdxmF-91" value="&lt;div style=&quot;font-size: 14px;&quot;&gt;Recom&lt;/div&gt;&lt;div style=&quot;font-size: 14px;&quot;&gt;mendations&lt;/div&gt;" style="strokeWidth=2;html=1;shape=mxgraph.flowchart.document2;whiteSpace=wrap;size=0.25;fontSize=14;" parent="2lcCUF3nb1PlsJxBdxmF-70" vertex="1">
          <mxGeometry x="50" y="50" width="86" height="50" as="geometry" />
        </mxCell>
        <mxCell id="2lcCUF3nb1PlsJxBdxmF-92" value="Badge" style="strokeWidth=2;html=1;shape=mxgraph.flowchart.document2;whiteSpace=wrap;size=0.25;fontSize=14;" parent="2lcCUF3nb1PlsJxBdxmF-70" vertex="1">
          <mxGeometry x="136" y="50" width="45.5" height="50" as="geometry" />
        </mxCell>
        <mxCell id="2lcCUF3nb1PlsJxBdxmF-71" style="edgeStyle=orthogonalEdgeStyle;rounded=0;orthogonalLoop=1;jettySize=auto;html=1;entryX=0;entryY=0.5;entryDx=0;entryDy=0;entryPerimeter=0;" parent="dNxyNK7c78bLwvsdeMH5-21" source="2lcCUF3nb1PlsJxBdxmF-61" target="2lcCUF3nb1PlsJxBdxmF-70" edge="1">
          <mxGeometry relative="1" as="geometry" />
        </mxCell>
        <mxCell id="2lcCUF3nb1PlsJxBdxmF-75" value="" style="points=[[0.25,0.25,0],[0.5,0,0],[0.75,0.25,0],[1,0.5,0],[0.75,0.75,0],[0.5,1,0],[0.25,0.75,0],[0,0.5,0]];shape=mxgraph.bpmn.gateway2;html=1;verticalLabelPosition=bottom;labelBackgroundColor=#ffffff;verticalAlign=top;align=center;perimeter=rhombusPerimeter;outlineConnect=0;outline=none;symbol=none;gwType=parallel;" parent="dNxyNK7c78bLwvsdeMH5-21" vertex="1">
          <mxGeometry x="575" y="40" width="50" height="50" as="geometry" />
        </mxCell>
        <mxCell id="2lcCUF3nb1PlsJxBdxmF-76" style="edgeStyle=orthogonalEdgeStyle;rounded=0;orthogonalLoop=1;jettySize=auto;html=1;entryX=0;entryY=0.5;entryDx=0;entryDy=0;entryPerimeter=0;" parent="dNxyNK7c78bLwvsdeMH5-21" source="2lcCUF3nb1PlsJxBdxmF-70" target="2lcCUF3nb1PlsJxBdxmF-75" edge="1">
          <mxGeometry relative="1" as="geometry" />
        </mxCell>
        <mxCell id="2lcCUF3nb1PlsJxBdxmF-78" value="Update Catalog" style="points=[[0.25,0,0],[0.5,0,0],[0.75,0,0],[1,0.25,0],[1,0.5,0],[1,0.75,0],[0.75,1,0],[0.5,1,0],[0.25,1,0],[0,0.75,0],[0,0.5,0],[0,0.25,0]];shape=mxgraph.bpmn.task;whiteSpace=wrap;rectStyle=rounded;size=10;html=1;container=1;expand=0;collapsible=0;taskMarker=service;fontSize=14;" parent="dNxyNK7c78bLwvsdeMH5-21" vertex="1">
          <mxGeometry x="655" y="40" width="120" height="50" as="geometry" />
        </mxCell>
        <mxCell id="2lcCUF3nb1PlsJxBdxmF-79" style="edgeStyle=orthogonalEdgeStyle;rounded=0;orthogonalLoop=1;jettySize=auto;html=1;exitX=1;exitY=0.5;exitDx=0;exitDy=0;exitPerimeter=0;entryX=0;entryY=0.5;entryDx=0;entryDy=0;entryPerimeter=0;" parent="dNxyNK7c78bLwvsdeMH5-21" source="2lcCUF3nb1PlsJxBdxmF-75" target="2lcCUF3nb1PlsJxBdxmF-78" edge="1">
          <mxGeometry relative="1" as="geometry" />
        </mxCell>
        <mxCell id="dNxyNK7c78bLwvsdeMH5-22" value="KnowledgeHub" style="swimlane;html=1;startSize=20;horizontal=0;fontSize=14;" parent="dNxyNK7c78bLwvsdeMH5-19" vertex="1">
          <mxGeometry x="20" y="120" width="790" height="120" as="geometry" />
        </mxCell>
        <mxCell id="2lcCUF3nb1PlsJxBdxmF-56" value="KH DB" style="strokeWidth=2;html=1;shape=mxgraph.flowchart.database;whiteSpace=wrap;fontSize=14;" parent="dNxyNK7c78bLwvsdeMH5-22" vertex="1">
          <mxGeometry x="60" y="30" width="60" height="60" as="geometry" />
        </mxCell>
        <mxCell id="2lcCUF3nb1PlsJxBdxmF-80" value="KH DB" style="strokeWidth=2;html=1;shape=mxgraph.flowchart.database;whiteSpace=wrap;fontSize=14;" parent="dNxyNK7c78bLwvsdeMH5-22" vertex="1">
          <mxGeometry x="685" y="30" width="60" height="60" as="geometry" />
        </mxCell>
        <mxCell id="2lcCUF3nb1PlsJxBdxmF-26" value="N4E HelpDesk" style="swimlane;html=1;startSize=20;horizontal=0;fontSize=14;" parent="dNxyNK7c78bLwvsdeMH5-19" vertex="1">
          <mxGeometry x="20" y="240" width="790" height="120" as="geometry" />
        </mxCell>
        <mxCell id="2lcCUF3nb1PlsJxBdxmF-63" value="" style="points=[[0.145,0.145,0],[0.5,0,0],[0.855,0.145,0],[1,0.5,0],[0.855,0.855,0],[0.5,1,0],[0.145,0.855,0],[0,0.5,0]];shape=mxgraph.bpmn.event;html=1;verticalLabelPosition=bottom;labelBackgroundColor=#ffffff;verticalAlign=top;align=center;perimeter=ellipsePerimeter;outlineConnect=0;aspect=fixed;outline=standard;symbol=message;" parent="2lcCUF3nb1PlsJxBdxmF-26" vertex="1">
          <mxGeometry x="225" y="35" width="50" height="50" as="geometry" />
        </mxCell>
        <mxCell id="2lcCUF3nb1PlsJxBdxmF-72" value="" style="points=[[0.145,0.145,0],[0.5,0,0],[0.855,0.145,0],[1,0.5,0],[0.855,0.855,0],[0.5,1,0],[0.145,0.855,0],[0,0.5,0]];shape=mxgraph.bpmn.event;html=1;verticalLabelPosition=bottom;labelBackgroundColor=#ffffff;verticalAlign=top;align=center;perimeter=ellipsePerimeter;outlineConnect=0;aspect=fixed;outline=standard;symbol=message;" parent="2lcCUF3nb1PlsJxBdxmF-26" vertex="1">
          <mxGeometry x="425" y="35" width="50" height="50" as="geometry" />
        </mxCell>
        <mxCell id="2lcCUF3nb1PlsJxBdxmF-85" value="Consultancy needed?" style="points=[[0.25,0.25,0],[0.5,0,0],[0.75,0.25,0],[1,0.5,0],[0.75,0.75,0],[0.5,1,0],[0.25,0.75,0],[0,0.5,0]];shape=mxgraph.bpmn.gateway2;html=1;verticalLabelPosition=bottom;labelBackgroundColor=#ffffff;verticalAlign=top;align=center;perimeter=rhombusPerimeter;outlineConnect=0;outline=none;symbol=none;fontSize=14;" parent="2lcCUF3nb1PlsJxBdxmF-26" vertex="1">
          <mxGeometry x="540" y="35" width="50" height="50" as="geometry" />
        </mxCell>
        <mxCell id="2lcCUF3nb1PlsJxBdxmF-86" style="edgeStyle=orthogonalEdgeStyle;rounded=0;orthogonalLoop=1;jettySize=auto;html=1;exitX=1;exitY=0.5;exitDx=0;exitDy=0;exitPerimeter=0;entryX=0;entryY=0.5;entryDx=0;entryDy=0;entryPerimeter=0;" parent="2lcCUF3nb1PlsJxBdxmF-26" source="2lcCUF3nb1PlsJxBdxmF-72" target="2lcCUF3nb1PlsJxBdxmF-85" edge="1">
          <mxGeometry relative="1" as="geometry" />
        </mxCell>
        <mxCell id="2lcCUF3nb1PlsJxBdxmF-53" value="N4E Consultant" style="swimlane;html=1;startSize=20;horizontal=0;fontSize=14;" parent="dNxyNK7c78bLwvsdeMH5-19" vertex="1">
          <mxGeometry x="20" y="360" width="790" height="120" as="geometry" />
        </mxCell>
        <mxCell id="2lcCUF3nb1PlsJxBdxmF-89" value="Get involved" style="points=[[0.25,0,0],[0.5,0,0],[0.75,0,0],[1,0.25,0],[1,0.5,0],[1,0.75,0],[0.75,1,0],[0.5,1,0],[0.25,1,0],[0,0.75,0],[0,0.5,0],[0,0.25,0]];shape=mxgraph.bpmn.task;whiteSpace=wrap;rectStyle=rounded;size=10;html=1;container=1;expand=0;collapsible=0;taskMarker=abstract;fontSize=14;" parent="2lcCUF3nb1PlsJxBdxmF-53" vertex="1">
          <mxGeometry x="505" y="40" width="120" height="50" as="geometry" />
        </mxCell>
        <mxCell id="2lcCUF3nb1PlsJxBdxmF-64" style="edgeStyle=orthogonalEdgeStyle;rounded=0;orthogonalLoop=1;jettySize=auto;html=1;exitX=0.5;exitY=1;exitDx=0;exitDy=0;exitPerimeter=0;entryX=0.5;entryY=0;entryDx=0;entryDy=0;entryPerimeter=0;" parent="dNxyNK7c78bLwvsdeMH5-19" source="2lcCUF3nb1PlsJxBdxmF-61" target="2lcCUF3nb1PlsJxBdxmF-63" edge="1">
          <mxGeometry relative="1" as="geometry" />
        </mxCell>
        <mxCell id="2lcCUF3nb1PlsJxBdxmF-65" value="Notify" style="edgeLabel;html=1;align=center;verticalAlign=middle;resizable=0;points=[];fontSize=14;" parent="2lcCUF3nb1PlsJxBdxmF-64" vertex="1" connectable="0">
          <mxGeometry x="0.2343" relative="1" as="geometry">
            <mxPoint as="offset" />
          </mxGeometry>
        </mxCell>
        <mxCell id="2lcCUF3nb1PlsJxBdxmF-67" style="edgeStyle=orthogonalEdgeStyle;rounded=0;orthogonalLoop=1;jettySize=auto;html=1;entryX=0;entryY=0.5;entryDx=0;entryDy=0;entryPerimeter=0;endArrow=none;endFill=0;dashed=1;" parent="dNxyNK7c78bLwvsdeMH5-19" source="2lcCUF3nb1PlsJxBdxmF-56" target="2lcCUF3nb1PlsJxBdxmF-61" edge="1">
          <mxGeometry relative="1" as="geometry">
            <Array as="points">
              <mxPoint x="190" y="180" />
              <mxPoint x="190" y="70" />
              <mxPoint x="210" y="70" />
            </Array>
          </mxGeometry>
        </mxCell>
        <mxCell id="2lcCUF3nb1PlsJxBdxmF-73" style="edgeStyle=orthogonalEdgeStyle;rounded=0;orthogonalLoop=1;jettySize=auto;html=1;exitX=0.5;exitY=1;exitDx=0;exitDy=0;exitPerimeter=0;" parent="dNxyNK7c78bLwvsdeMH5-19" source="2lcCUF3nb1PlsJxBdxmF-70" target="2lcCUF3nb1PlsJxBdxmF-72" edge="1">
          <mxGeometry relative="1" as="geometry" />
        </mxCell>
        <mxCell id="2lcCUF3nb1PlsJxBdxmF-74" value="Notify" style="edgeLabel;html=1;align=center;verticalAlign=middle;resizable=0;points=[];fontSize=14;" parent="2lcCUF3nb1PlsJxBdxmF-73" vertex="1" connectable="0">
          <mxGeometry x="0.1568" y="-2" relative="1" as="geometry">
            <mxPoint as="offset" />
          </mxGeometry>
        </mxCell>
        <mxCell id="2lcCUF3nb1PlsJxBdxmF-81" style="edgeStyle=orthogonalEdgeStyle;rounded=0;orthogonalLoop=1;jettySize=auto;html=1;exitX=0.5;exitY=1;exitDx=0;exitDy=0;exitPerimeter=0;entryX=0.5;entryY=0;entryDx=0;entryDy=0;entryPerimeter=0;endArrow=none;endFill=0;dashed=1;" parent="dNxyNK7c78bLwvsdeMH5-19" source="2lcCUF3nb1PlsJxBdxmF-78" target="2lcCUF3nb1PlsJxBdxmF-80" edge="1">
          <mxGeometry relative="1" as="geometry" />
        </mxCell>
        <mxCell id="2lcCUF3nb1PlsJxBdxmF-87" style="edgeStyle=orthogonalEdgeStyle;rounded=0;orthogonalLoop=1;jettySize=auto;html=1;exitX=0.5;exitY=1;exitDx=0;exitDy=0;exitPerimeter=0;entryX=0.5;entryY=0;entryDx=0;entryDy=0;entryPerimeter=0;" parent="dNxyNK7c78bLwvsdeMH5-19" source="2lcCUF3nb1PlsJxBdxmF-85" target="2lcCUF3nb1PlsJxBdxmF-89" edge="1">
          <mxGeometry relative="1" as="geometry">
            <mxPoint x="545" y="400" as="targetPoint" />
          </mxGeometry>
        </mxCell>
        <mxCell id="2lcCUF3nb1PlsJxBdxmF-88" value="Yes" style="edgeLabel;html=1;align=center;verticalAlign=middle;resizable=0;points=[];fontSize=14;" parent="2lcCUF3nb1PlsJxBdxmF-87" vertex="1" connectable="0">
          <mxGeometry x="0.2319" relative="1" as="geometry">
            <mxPoint as="offset" />
          </mxGeometry>
        </mxCell>
        <mxCell id="dNxyNK7c78bLwvsdeMH5-20" value="Applicant" style="swimlane;html=1;startSize=20;horizontal=0;fillColor=#60a917;fontColor=#ffffff;strokeColor=#2D7600;fontSize=16;" parent="1" vertex="1">
          <mxGeometry x="40" y="30" width="1040" height="120" as="geometry" />
        </mxCell>
        <mxCell id="dNxyNK7c78bLwvsdeMH5-25" value="" style="edgeStyle=orthogonalEdgeStyle;rounded=0;orthogonalLoop=1;jettySize=auto;html=1;" parent="dNxyNK7c78bLwvsdeMH5-20" source="dNxyNK7c78bLwvsdeMH5-23" edge="1">
          <mxGeometry relative="1" as="geometry">
            <mxPoint x="120" y="60" as="targetPoint" />
          </mxGeometry>
        </mxCell>
        <mxCell id="dNxyNK7c78bLwvsdeMH5-23" value="" style="ellipse;whiteSpace=wrap;html=1;fillColor=#1ba1e2;fontColor=#ffffff;strokeColor=#006EAF;" parent="dNxyNK7c78bLwvsdeMH5-20" vertex="1">
          <mxGeometry x="40" y="40" width="40" height="40" as="geometry" />
        </mxCell>
        <mxCell id="dNxyNK7c78bLwvsdeMH5-32" value="Badge" style="ellipse;whiteSpace=wrap;html=1;fillColor=#60a917;fontColor=#ffffff;strokeColor=#2D7600;fontSize=14;" parent="dNxyNK7c78bLwvsdeMH5-20" vertex="1">
          <mxGeometry x="945" y="40" width="40" height="40" as="geometry" />
        </mxCell>
        <mxCell id="2lcCUF3nb1PlsJxBdxmF-50" value="" style="edgeStyle=orthogonalEdgeStyle;rounded=0;orthogonalLoop=1;jettySize=auto;html=1;" parent="dNxyNK7c78bLwvsdeMH5-20" source="2lcCUF3nb1PlsJxBdxmF-24" target="2lcCUF3nb1PlsJxBdxmF-49" edge="1">
          <mxGeometry relative="1" as="geometry" />
        </mxCell>
        <mxCell id="2lcCUF3nb1PlsJxBdxmF-24" value="Update re3data" style="rounded=1;whiteSpace=wrap;html=1;fontSize=14;" parent="dNxyNK7c78bLwvsdeMH5-20" vertex="1">
          <mxGeometry x="120" y="30" width="120" height="60" as="geometry" />
        </mxCell>
        <mxCell id="2lcCUF3nb1PlsJxBdxmF-59" style="edgeStyle=orthogonalEdgeStyle;rounded=0;orthogonalLoop=1;jettySize=auto;html=1;" parent="dNxyNK7c78bLwvsdeMH5-20" source="2lcCUF3nb1PlsJxBdxmF-49" edge="1">
          <mxGeometry relative="1" as="geometry">
            <mxPoint x="440" y="60" as="targetPoint" />
          </mxGeometry>
        </mxCell>
        <mxCell id="2lcCUF3nb1PlsJxBdxmF-49" value="Do SelfAssessment" style="rounded=1;whiteSpace=wrap;html=1;fontSize=14;" parent="dNxyNK7c78bLwvsdeMH5-20" vertex="1">
          <mxGeometry x="279" y="30" width="120" height="60" as="geometry" />
        </mxCell>
        <mxCell id="2lcCUF3nb1PlsJxBdxmF-60" value="Apply" style="rounded=1;whiteSpace=wrap;html=1;fontSize=14;" parent="dNxyNK7c78bLwvsdeMH5-20" vertex="1">
          <mxGeometry x="440" y="30" width="120" height="60" as="geometry" />
        </mxCell>
        <mxCell id="2lcCUF3nb1PlsJxBdxmF-25" style="edgeStyle=orthogonalEdgeStyle;rounded=0;orthogonalLoop=1;jettySize=auto;html=1;entryX=0.5;entryY=0;entryDx=0;entryDy=0;entryPerimeter=0;dashed=1;" parent="1" source="2lcCUF3nb1PlsJxBdxmF-24" target="2lcCUF3nb1PlsJxBdxmF-20" edge="1">
          <mxGeometry relative="1" as="geometry" />
        </mxCell>
        <mxCell id="2lcCUF3nb1PlsJxBdxmF-55" style="edgeStyle=orthogonalEdgeStyle;rounded=0;orthogonalLoop=1;jettySize=auto;html=1;entryX=0.5;entryY=0;entryDx=0;entryDy=0;entryPerimeter=0;dashed=1;endArrow=none;endFill=0;" parent="1" source="2lcCUF3nb1PlsJxBdxmF-49" target="2lcCUF3nb1PlsJxBdxmF-54" edge="1">
          <mxGeometry relative="1" as="geometry">
            <Array as="points">
              <mxPoint x="379" y="220" />
              <mxPoint x="380" y="220" />
            </Array>
          </mxGeometry>
        </mxCell>
        <mxCell id="2lcCUF3nb1PlsJxBdxmF-57" style="edgeStyle=orthogonalEdgeStyle;rounded=0;orthogonalLoop=1;jettySize=auto;html=1;entryX=1;entryY=0.5;entryDx=0;entryDy=0;entryPerimeter=0;startArrow=classic;startFill=1;endArrow=none;endFill=0;" parent="1" source="2lcCUF3nb1PlsJxBdxmF-56" target="2lcCUF3nb1PlsJxBdxmF-20" edge="1">
          <mxGeometry relative="1" as="geometry">
            <Array as="points">
              <mxPoint x="380" y="767" />
            </Array>
          </mxGeometry>
        </mxCell>
        <mxCell id="2lcCUF3nb1PlsJxBdxmF-58" value="Harvest/Synchronize" style="edgeLabel;html=1;align=center;verticalAlign=middle;resizable=0;points=[];fontSize=14;" parent="2lcCUF3nb1PlsJxBdxmF-57" vertex="1" connectable="0">
          <mxGeometry x="-0.5091" y="-1" relative="1" as="geometry">
            <mxPoint x="-9" y="218" as="offset" />
          </mxGeometry>
        </mxCell>
        <mxCell id="2lcCUF3nb1PlsJxBdxmF-3" value="External Source" style="swimlane;html=1;startSize=20;horizontal=0;fillColor=#f0a30a;fontColor=#000000;strokeColor=#BD7000;fontSize=16;" parent="1" vertex="1">
          <mxGeometry x="40" y="707" width="1040" height="120" as="geometry" />
        </mxCell>
        <mxCell id="2lcCUF3nb1PlsJxBdxmF-20" value="&lt;b style=&quot;font-size: 14px;&quot;&gt;&lt;font style=&quot;font-size: 14px;&quot; color=&quot;#1f78ff&quot;&gt;re&lt;/font&gt;&lt;font style=&quot;font-size: 14px;&quot; color=&quot;#009900&quot;&gt;3&lt;/font&gt;data&lt;/b&gt;" style="shape=cylinder3;whiteSpace=wrap;html=1;boundedLbl=1;backgroundOutline=1;size=15;gradientColor=#009900;fillColor=none;fontSize=14;" parent="2lcCUF3nb1PlsJxBdxmF-3" vertex="1">
          <mxGeometry x="150" y="20" width="60" height="80" as="geometry" />
        </mxCell>
        <mxCell id="2lcCUF3nb1PlsJxBdxmF-21" value="&lt;div style=&quot;font-size: 13px;&quot;&gt;Fuji-Tool&lt;/div&gt;&lt;div style=&quot;font-size: 13px;&quot;&gt;(AAS or self hosted)&lt;br style=&quot;font-size: 13px;&quot;&gt;&lt;/div&gt;" style="rounded=1;whiteSpace=wrap;html=1;absoluteArcSize=1;arcSize=14;strokeWidth=2;fontSize=13;" parent="2lcCUF3nb1PlsJxBdxmF-3" vertex="1">
          <mxGeometry x="517" y="20" width="70" height="70" as="geometry" />
        </mxCell>
        <mxCell id="2lcCUF3nb1PlsJxBdxmF-62" style="edgeStyle=orthogonalEdgeStyle;rounded=0;orthogonalLoop=1;jettySize=auto;html=1;entryX=0.5;entryY=0;entryDx=0;entryDy=0;entryPerimeter=0;" parent="1" source="2lcCUF3nb1PlsJxBdxmF-60" target="2lcCUF3nb1PlsJxBdxmF-61" edge="1">
          <mxGeometry relative="1" as="geometry" />
        </mxCell>
        <mxCell id="2lcCUF3nb1PlsJxBdxmF-66" value="Start" style="edgeLabel;html=1;align=center;verticalAlign=middle;resizable=0;points=[];fontSize=14;" parent="2lcCUF3nb1PlsJxBdxmF-62" vertex="1" connectable="0">
          <mxGeometry x="-0.1304" y="1" relative="1" as="geometry">
            <mxPoint as="offset" />
          </mxGeometry>
        </mxCell>
        <mxCell id="2lcCUF3nb1PlsJxBdxmF-68" style="edgeStyle=orthogonalEdgeStyle;rounded=0;orthogonalLoop=1;jettySize=auto;html=1;dashed=1;endArrow=none;endFill=0;entryX=0.5;entryY=0;entryDx=0;entryDy=0;" parent="1" source="2lcCUF3nb1PlsJxBdxmF-61" target="2lcCUF3nb1PlsJxBdxmF-21" edge="1">
          <mxGeometry relative="1" as="geometry">
            <Array as="points">
              <mxPoint x="590" y="727" />
            </Array>
          </mxGeometry>
        </mxCell>
        <mxCell id="2lcCUF3nb1PlsJxBdxmF-77" style="edgeStyle=orthogonalEdgeStyle;rounded=0;orthogonalLoop=1;jettySize=auto;html=1;entryX=0;entryY=0.5;entryDx=0;entryDy=0;exitX=1;exitY=0.5;exitDx=0;exitDy=0;exitPerimeter=0;" parent="1" source="2lcCUF3nb1PlsJxBdxmF-82" target="dNxyNK7c78bLwvsdeMH5-32" edge="1">
          <mxGeometry relative="1" as="geometry" />
        </mxCell>
        <mxCell id="2lcCUF3nb1PlsJxBdxmF-83" value="" style="edgeStyle=orthogonalEdgeStyle;rounded=0;orthogonalLoop=1;jettySize=auto;html=1;entryX=0.5;entryY=1;entryDx=0;entryDy=0;exitX=0.5;exitY=0;exitDx=0;exitDy=0;exitPerimeter=0;entryPerimeter=0;" parent="1" source="2lcCUF3nb1PlsJxBdxmF-75" target="2lcCUF3nb1PlsJxBdxmF-82" edge="1">
          <mxGeometry relative="1" as="geometry">
            <mxPoint x="825" y="230" as="sourcePoint" />
            <mxPoint x="920" y="90" as="targetPoint" />
          </mxGeometry>
        </mxCell>
        <mxCell id="2lcCUF3nb1PlsJxBdxmF-84" value="Notify" style="edgeLabel;html=1;align=center;verticalAlign=middle;resizable=0;points=[];fontSize=14;" parent="2lcCUF3nb1PlsJxBdxmF-83" vertex="1" connectable="0">
          <mxGeometry x="-0.1652" y="-2" relative="1" as="geometry">
            <mxPoint x="-2" y="-12" as="offset" />
          </mxGeometry>
        </mxCell>
        <mxCell id="2lcCUF3nb1PlsJxBdxmF-82" value="" style="points=[[0.145,0.145,0],[0.5,0,0],[0.855,0.145,0],[1,0.5,0],[0.855,0.855,0],[0.5,1,0],[0.145,0.855,0],[0,0.5,0]];shape=mxgraph.bpmn.event;html=1;verticalLabelPosition=bottom;labelBackgroundColor=#ffffff;verticalAlign=top;align=center;perimeter=ellipsePerimeter;outlineConnect=0;aspect=fixed;outline=standard;symbol=message;" parent="1" vertex="1">
          <mxGeometry x="865" y="65" width="50" height="50" as="geometry" />
        </mxCell>
        <mxCell id="2lcCUF3nb1PlsJxBdxmF-93" style="rounded=0;orthogonalLoop=1;jettySize=auto;html=1;entryX=0.145;entryY=0.855;entryDx=0;entryDy=0;entryPerimeter=0;exitX=0.5;exitY=0;exitDx=0;exitDy=0;exitPerimeter=0;endArrow=none;endFill=0;dashed=1;" parent="1" source="2lcCUF3nb1PlsJxBdxmF-92" target="2lcCUF3nb1PlsJxBdxmF-82" edge="1">
          <mxGeometry relative="1" as="geometry" />
        </mxCell>
        <mxCell id="2lcCUF3nb1PlsJxBdxmF-95" style="rounded=0;orthogonalLoop=1;jettySize=auto;html=1;exitX=0.5;exitY=0;exitDx=0;exitDy=0;exitPerimeter=0;dashed=1;endArrow=none;endFill=0;entryX=0.145;entryY=0.855;entryDx=0;entryDy=0;entryPerimeter=0;" parent="1" source="2lcCUF3nb1PlsJxBdxmF-90" target="2lcCUF3nb1PlsJxBdxmF-82" edge="1">
          <mxGeometry relative="1" as="geometry">
            <mxPoint x="870" y="120" as="targetPoint" />
          </mxGeometry>
        </mxCell>
      </root>
    </mxGraphModel>
  </diagram>
</mxfile>
